<svg xmlns="http://www.w3.org/2000/svg" width="55" height="54" viewBox="0 0 55 54">
  <g id="Group_4888" data-name="Group 4888" transform="translate(-1341 -5511)">
    <g id="arrow_prev" data-name="arrow prev" transform="translate(1362 5527)">
      <g id="Group_82" data-name="Group 82" transform="translate(0 0)">
        <path id="Path_82" data-name="Path 82" d="M2.284.392,12.6,10.7,2.284,21.016a1.339,1.339,0,0,1-1.892,0h0a1.336,1.336,0,0,1,0-1.892l8.42-8.42L.392,2.284a1.336,1.336,0,0,1,0-1.892h0A1.336,1.336,0,0,1,2.284.392Z" transform="translate(0 0)" fill="#707070"/>
      </g>
    </g>
    <g id="Group_4887" data-name="Group 4887">
      <rect id="Rectangle_2220" data-name="Rectangle 2220" width="55" height="54" rx="27" transform="translate(1341 5511)" fill="#505050" opacity="0.07"/>
      <g id="Rectangle_2222" data-name="Rectangle 2222" transform="translate(1341 5511)" fill="none" stroke="#707070" stroke-width="1">
        <rect width="55" height="54" rx="27" stroke="none"/>
        <rect x="0.5" y="0.5" width="54" height="53" rx="26.5" fill="none"/>
      </g>
    </g>
  </g>
</svg>
